<svg width="150" height="44" viewBox="0 0 150 44" xmlns="http://www.w3.org/2000/svg"><title>Group 4</title><defs><linearGradient x1="0%" y1="50%" y2="50%" id="a"><stop stop-color="#A065AA" offset="0%"/><stop stop-color="#4F72B8" offset="100%"/></linearGradient><linearGradient x1="-4798.709%" y1="1368.562%" y2="50%" id="b"><stop stop-color="#A065AA" offset="0%"/><stop stop-color="#4F72B8" offset="100%"/></linearGradient></defs><g stroke-width="2" fill="none" fill-rule="evenodd"><path d="M145 5H2a1 1 0 0 0-1 1v36a1 1 0 0 0 1 1h142a1 1 0 0 0 1-1V5z" stroke="url(#a)"/><path d="M1.307 4.131A1 1 0 0 0 1 4.852V42a1 1 0 0 0 1 1h143.029a1 1 0 0 0 .692-.279l2.972-2.852a1 1 0 0 0 .307-.721V2a1 1 0 0 0-1-1H4.971a1 1 0 0 0-.692.279L1.307 4.13z" stroke="url(#a)"/><path d="M148 2l-3 3" stroke="url(#b)" stroke-linecap="round" stroke-linejoin="round"/></g></svg>